<svg width="112" height="28" viewBox="0 0 112 28" fill="none" xmlns="http://www.w3.org/2000/svg">
<path d="M111.671 6.8518C110.067 6.8518 109.96 7.57898 109.96 8.62698V18.2515C109.96 19.2995 110.067 20.0267 111.671 20.0267H111.821V20.8394H105.597V20.0267H105.747C107.351 20.0267 107.458 19.2995 107.458 18.2515V13.8456H100.699V18.2515C100.699 19.2995 100.806 20.0267 102.41 20.0267H102.56V20.8394H96.3359V20.0267H96.4857C98.0897 20.0267 98.1967 19.2995 98.1967 18.2515V8.62698C98.1967 7.57898 98.0897 6.8518 96.4857 6.8518H96.3359V6.03906H102.56V6.8518H102.41C100.806 6.8518 100.699 7.57898 100.699 8.62698V12.5196H107.458V8.62698C107.458 7.57898 107.351 6.8518 105.747 6.8518H105.597V6.03906H111.821V6.8518H111.671Z" fill="white"/>
<path d="M83.7578 20.0267H83.9075C85.5116 20.0267 85.6185 19.2995 85.6185 18.2515V8.62698C85.6185 7.57898 85.5116 6.8518 83.9075 6.8518H83.7578V6.03906H90.7516C93.8101 6.03906 95.4783 7.55759 95.4783 9.91025C95.4783 12.6479 93.1043 14.2733 90.1528 14.2733C88.9978 14.2733 88.3134 14.145 88.1209 14.0809V18.4012C88.1209 19.4064 88.5059 20.0267 90.0458 20.0267H90.495V20.8394H83.7578V20.0267ZM89.6181 13.1398C91.6285 13.1398 92.8048 12.1346 92.8048 10.1027C92.8048 8.32755 91.7996 7.10845 89.9389 7.10845H89.8961C88.5701 7.10845 88.1209 7.49343 88.1209 8.73392V12.9901C88.2706 13.0329 88.7839 13.1398 89.6181 13.1398Z" fill="white"/>
<path d="M82.5095 16.8185L81.5043 20.8394H70.3398V20.0267H70.4896C72.0936 20.0267 72.2006 19.2995 72.2006 18.2515V8.62698C72.2006 7.57898 72.0936 6.8518 70.4896 6.8518H70.3398V6.03906H82.0603V9.88886H81.0979C81.0551 8.75531 80.6915 8.11367 80.0927 7.75008C79.5152 7.3651 78.6811 7.27955 77.6758 7.27955H74.7029V12.819H77.0342C78.6169 12.819 79.3013 12.5837 79.3227 10.8727H80.2424V15.9844H79.3227C79.2585 14.4444 78.6169 14.0381 77.0342 14.0381H74.7029V18.2087C74.7029 19.0856 75.0238 19.492 75.8579 19.492H77.7186C79.6435 19.492 80.5632 18.7434 81.4615 16.8185H82.5095Z" fill="white"/>
<path d="M57.3203 20.0267H57.47C59.0741 20.0267 59.181 19.2995 59.181 18.2515V8.62698C59.181 7.57898 59.0741 6.8518 57.47 6.8518H57.3203V6.03906H63.6511V6.8518H63.3944C61.7904 6.8518 61.6834 7.57898 61.6834 8.62698V18.1873C61.6834 19.0428 62.047 19.4492 62.9881 19.4492H64.6135C66.7523 19.4492 67.7575 17.8879 68.2495 16.2838L68.4206 15.7277H69.4686L68.6344 20.8394H57.3203V20.0267Z" fill="white"/>
<path d="M54.3394 17.9093C54.8955 19.3636 55.5799 19.9839 56.7776 20.0267V20.8394H49.9763V20.0267H50.8532C51.666 20.0267 51.9654 19.7058 51.9654 19.1711C51.9654 18.8717 51.8798 18.5295 51.7301 18.1231L50.6393 15.1289H45.7415L44.6508 18.0162C44.4797 18.444 44.3941 18.8289 44.3941 19.1284C44.3941 19.7058 44.8219 20.0267 45.6132 20.0267H46.4473V20.8394H40.8438V20.0267C42.1056 20.0267 42.5548 19.6203 43.2392 17.8665L47.8589 6.03906H49.8052L54.3394 17.9093ZM46.2121 13.8242H50.233L48.2653 8.4131L46.2121 13.8242Z" fill="white"/>
<g clip-path="url(#clip0_5651_167)">
<path d="M16.014 27.1832H9.21494L9.13387 27.0967L0 17.3359H4.02647C5.78838 17.3359 7.49626 18.0818 8.7069 19.3735L16.014 27.1832Z" fill="white"/>
<path d="M32.2406 10.0035H28.2573C26.4684 10.0035 24.7335 9.24688 23.5066 7.93355L16.2266 0.15625H23.0256L23.1067 0.242724L32.2406 10.0035Z" fill="white"/>
<path d="M32.255 27.1795H28.2177C26.445 27.1795 24.7317 26.4391 23.5157 25.1474L0 0.15625H4.02647C5.79919 0.15625 7.51247 0.896688 8.72852 2.1884L32.255 27.1795Z" fill="white"/>
</g>
<defs>
<clipPath id="clip0_5651_167">
<rect width="32.255" height="27.0341" fill="white" transform="translate(0 0.15625)"/>
</clipPath>
</defs>
</svg>
