<svg width="186" height="49" viewBox="0 0 186 49" fill="none" xmlns="http://www.w3.org/2000/svg"><path d="M59.04 2.338c-3.54 2.264-5.873 6.21-7.694 10.87-5.21 13.334-6.23 32.516-19.322 34.846-18.48 3.29-25.91-10.535-29.471-18.073-3.562-7.537-3.39-15.014.475-17.579 4.01-2.66 18.05 3.204 24.056 5.153 6.006 1.949 17.688 5.585 30.008 3.557 12.321-2.028 14.794-4.13 16.63-9.483 1.835-5.353-5.36-15.255-14.683-9.29z" fill="#37C7E8"/><path d="M63.335 33.199h-4.847v-3.89H72.66v3.89h-4.847v12.127h-4.478V33.2zm19.134-3.89h12.994v3.775H86.9v2.426h7.756v3.5H86.9v2.54h8.679v3.776h-13.11V29.31zm28.827-.114h4.316l6.878 16.132h-4.8l-1.178-2.86h-6.232l-1.154 2.86h-4.708l6.878-16.132zm3.924 9.817l-1.801-4.554-1.823 4.554h3.624zm16.686-9.703h4.732l3.855 6.201 3.854-6.201h4.732v16.017h-4.455v-9.198l-4.131 6.269h-.093l-4.108-6.224v9.153h-4.386V29.31zm26.844 11.556c0-1.945 1.039-3.112 2.77-3.844-1.247-.687-2.216-1.74-2.216-3.524 0-2.563 2.47-4.462 6.093-4.462 3.624 0 6.094 1.9 6.094 4.508 0 1.739-.969 2.791-2.216 3.478 1.639.755 2.77 1.83 2.77 3.867 0 2.86-2.77 4.713-6.648 4.713-3.877 0-6.647-1.9-6.647-4.736zm8.979-.435c0-1.03-.97-1.74-2.332-1.74-1.361 0-2.331.71-2.331 1.786 0 .96.831 1.807 2.331 1.807 1.501 0 2.332-.846 2.332-1.853zm-.347-6.407c0-.892-.761-1.693-1.985-1.693-1.223 0-1.984.778-1.984 1.716 0 1.007.784 1.762 1.984 1.762 1.201 0 1.985-.732 1.985-1.785zm12.222-8.005h-1.061v-.858h3.116v.858h-1.061v2.667h-.994v-2.666zm2.61-.858h1.05l.843 1.361.854-1.36H186v3.524h-.981v-2.06l-.901 1.396h-.034l-.9-1.396v2.06h-.97V25.16z" fill="#1D1D3A"/></svg>