<svg width="153" height="52" viewBox="0 0 153 52" fill="none" xmlns="http://www.w3.org/2000/svg">
<g clip-path="url(#clip0_301_395)">
<g clip-path="url(#clip1_301_395)">
<path d="M30.1173 11.6781V24.079C30.1173 26.996 29.351 29.2999 27.821 30.9908C26.291 32.6817 24.2348 33.5272 21.6524 33.5272C20.3115 33.5272 19.0778 33.2462 17.9564 32.6843C16.8326 32.1224 15.8722 31.3024 15.0701 30.2246C14.2093 31.3178 13.226 32.1428 12.1174 32.6945C11.0089 33.2488 9.79814 33.5247 8.48781 33.5247C5.90801 33.5247 3.84672 32.6741 2.30906 30.9781C0.771395 29.2795 0.00256348 26.9781 0.00256348 24.0765V11.6755H3.82884V24.7559C3.82884 26.2731 4.2554 27.4941 5.10852 28.4187C5.96164 29.3459 7.08807 29.8082 8.48781 29.8082C9.88754 29.8082 11.0037 29.3408 11.8773 28.4085C12.7534 27.4762 13.1902 26.2578 13.1902 24.7559V11.6755H16.996V24.7559C16.996 26.2731 17.4226 27.4941 18.2757 28.4187C19.1288 29.3459 20.2553 29.8082 21.655 29.8082C23.0547 29.8082 24.1454 29.3408 25.0113 28.4085C25.8797 27.4762 26.3114 26.2578 26.3114 24.7559V11.6755H30.1173V11.6781Z" fill="white"/>
<path d="M48.8195 33.1338V22.4392C48.8195 20.194 48.186 18.3753 46.9165 16.9833C45.6471 15.5912 43.9996 14.8939 41.9741 14.8939C39.9485 14.8939 38.3112 15.5835 37.0188 16.9603C35.7289 18.337 35.0827 20.1148 35.0827 22.2859C35.0827 24.457 35.7468 26.3191 37.0724 27.7316C38.3981 29.1466 40.0916 29.8542 42.1477 29.8542C43.08 29.8542 43.9894 29.6933 44.8706 29.374C45.7518 29.0521 46.6381 28.5566 47.527 27.8874V32.0202C46.6509 32.5157 45.7288 32.8835 44.7607 33.1236C43.7901 33.3637 42.7735 33.4838 41.7084 33.4838C40.6433 33.4838 39.6752 33.328 38.6688 33.0138C37.6625 32.6996 36.7506 32.2603 35.9358 31.6907C34.3905 30.6256 33.2078 29.2948 32.393 27.6984C31.5757 26.102 31.167 24.3268 31.167 22.3728C31.167 19.1646 32.181 16.5158 34.2066 14.4239C36.2321 12.332 38.8068 11.2847 41.9281 11.2847C43.9843 11.2847 45.8642 11.8032 47.5704 12.8377C49.2767 13.8722 50.5896 15.2949 51.5065 17.1033C51.9305 17.9207 52.2319 18.8121 52.4133 19.7827C52.5947 20.7534 52.6866 22.1991 52.6866 24.125V33.1364H48.8144L48.8195 33.1338Z" fill="white"/>
<path d="M58.7735 1.81354H54.9242V33.1338H58.7735V1.81354Z" fill="white"/>
<path d="M61.3788 33.1338V1.81354H65.228V19.4635H66.9343C68.0275 19.4635 68.9215 19.2387 69.6137 18.7866C70.3059 18.3345 71.0543 17.4456 71.8563 16.1174L74.5894 11.6781H79.0721L75.9227 16.7738C75.3684 17.6934 74.8218 18.4494 74.2829 19.0497C73.7439 19.6474 73.2331 20.0714 72.7529 20.3191C74.5179 20.6537 75.818 21.3791 76.6558 22.4954C77.4936 23.6116 77.9125 25.1901 77.9125 27.2309V33.1364H74.0402V27.7111C74.0402 26.1658 73.7005 25.0317 73.0236 24.3114C72.3442 23.5886 71.2714 23.2284 69.7976 23.2284H65.2255V33.1364H61.3762L61.3788 33.1338Z" fill="white"/>
<path fill-rule="evenodd" clip-rule="evenodd" d="M138.367 0H94.9162C86.8345 0 80.2828 6.55167 80.2828 14.6333V28.7482C80.2828 36.8298 86.8345 43.3815 94.9162 43.3815H106.173L116.479 50.7224L126.788 43.3815H138.367C146.448 43.3815 153 36.8298 153 28.7482V14.6333C153 6.55167 146.448 0 138.367 0Z" fill="#0072F5"/>
<path d="M90.2521 32.6613V20.2604C90.2521 17.3434 91.0183 15.0395 92.5483 13.3485C94.0783 11.6576 96.1422 10.8122 98.7373 10.8122C100.063 10.8122 101.289 11.0931 102.413 11.6551C103.534 12.217 104.505 13.0369 105.322 14.1148C106.168 13.0216 107.143 12.1966 108.252 11.6423C109.36 11.088 110.576 10.8122 111.905 10.8122C114.472 10.8122 116.523 11.6627 118.063 13.3613C119.6 15.0599 120.369 17.3613 120.369 20.2604V32.6613H116.563V19.5375C116.563 18.0356 116.134 16.8249 115.274 15.9079C114.413 14.9884 113.291 14.5312 111.905 14.5312C110.518 14.5312 109.396 14.9909 108.535 15.9079C107.675 16.8274 107.246 18.0382 107.246 19.5375V32.6613H103.44V19.5375C103.44 18.0356 103.003 16.8249 102.127 15.9079C101.251 14.9884 100.122 14.5312 98.7373 14.5312C97.3529 14.5312 96.2112 14.9909 95.358 15.9079C94.5049 16.8274 94.0784 18.0382 94.0784 19.5375V32.6613H90.2521Z" fill="white"/>
<path d="M143.031 23.1671C142.492 26.2297 141.25 28.6485 139.312 30.4289C137.373 32.2092 135.01 33.0981 132.224 33.0981C131.276 33.0981 130.339 32.9703 129.414 32.7149C128.489 32.4595 127.616 32.084 126.801 31.5885C125.079 30.5387 123.746 29.1671 122.798 27.4761C121.851 25.7852 121.376 23.9257 121.376 21.8976C121.376 20.4111 121.649 18.996 122.196 17.655C122.742 16.314 123.534 15.1033 124.569 14.0254C125.603 12.9603 126.781 12.1531 128.101 11.5989C129.422 11.0446 130.809 10.7687 132.267 10.7687C134.438 10.7687 136.382 11.3409 138.096 12.4852C139.807 13.6295 141.197 15.2949 142.262 17.4839L128.198 25.2693L126.579 22.36L137.01 16.5414C136.369 15.8262 135.646 15.2872 134.844 14.922C134.042 14.5567 133.169 14.3753 132.219 14.3753C130.295 14.3753 128.673 15.0931 127.353 16.5286C126.032 17.9641 125.373 19.7393 125.373 21.8542C125.373 23.9691 126.037 25.7265 127.363 27.1696C128.691 28.6128 130.308 29.3356 132.219 29.3356C134.129 29.3356 135.57 28.7354 136.801 27.5323C138.032 26.3293 138.801 24.6792 139.107 22.5796L143.023 23.1697L143.031 23.1671Z" fill="white"/>
<path d="M4.28346 47.5195H1.7905L1.37671 48.7123H0.0587158L2.31157 42.4391H3.77516L6.02801 48.7123H4.6998L4.28601 47.5195H4.28346ZM3.94374 46.5131L3.03698 43.8924L2.13022 46.5131H3.94374Z" fill="white"/>
<path d="M11.0599 44.2296C11.4252 44.6025 11.6066 45.1261 11.6066 45.7954V48.7123H10.3499V45.9665C10.3499 45.5706 10.2502 45.2692 10.0536 45.0546C9.85689 44.8401 9.58614 44.7353 9.24642 44.7353C8.90671 44.7353 8.62574 44.8426 8.42651 45.0546C8.22472 45.2666 8.1251 45.5706 8.1251 45.9665V48.7123H6.86841V43.7417H8.1251V44.3599C8.29368 44.1453 8.50569 43.9767 8.76622 43.8516C9.02676 43.729 9.31283 43.6677 9.6219 43.6677C10.2145 43.6677 10.6921 43.8541 11.0574 44.2296H11.0599Z" fill="white"/>
<path d="M15.9181 48.5514C15.5682 48.4007 15.2923 48.1861 15.088 47.9051C14.8836 47.6242 14.7789 47.2921 14.7738 46.909H16.1199C16.1378 47.1669 16.2297 47.3687 16.3932 47.5194C16.5567 47.6701 16.784 47.7442 17.0701 47.7442C17.3562 47.7442 17.5937 47.6752 17.7597 47.5348C17.9258 47.3943 18.01 47.2104 18.01 46.983C18.01 46.7966 17.9539 46.6459 17.8389 46.5258C17.7265 46.4058 17.5835 46.3113 17.4124 46.2423C17.2412 46.1733 17.0062 46.0967 16.7074 46.0124C16.3013 45.8924 15.9692 45.7749 15.7163 45.6574C15.4609 45.5399 15.2438 45.3636 15.0624 45.1286C14.8785 44.8911 14.7891 44.5769 14.7891 44.181C14.7891 43.8107 14.8811 43.4863 15.0675 43.213C15.254 42.9371 15.512 42.7276 15.8491 42.5795C16.1838 42.4339 16.5669 42.3598 16.9986 42.3598C17.6448 42.3598 18.1684 42.5156 18.5745 42.8298C18.9807 43.144 19.2003 43.5833 19.2438 44.1453H17.8619C17.8491 43.9307 17.7597 43.7519 17.5886 43.6114C17.4175 43.4709 17.1927 43.3994 16.9117 43.3994C16.6665 43.3994 16.4698 43.4633 16.3242 43.5884C16.1786 43.7136 16.1046 43.8975 16.1046 44.135C16.1046 44.3036 16.1608 44.4416 16.2706 44.5514C16.3804 44.6612 16.5184 44.7532 16.6844 44.8196C16.8504 44.886 17.0803 44.9677 17.3791 45.0571C17.7853 45.1772 18.1173 45.2972 18.3753 45.4173C18.6333 45.5373 18.853 45.7161 19.0394 45.9562C19.2259 46.1963 19.3178 46.5105 19.3178 46.8987C19.3178 47.2334 19.231 47.545 19.0573 47.8311C18.8836 48.1171 18.6282 48.347 18.2936 48.5181C17.959 48.6893 17.5605 48.7736 17.1007 48.7736C16.664 48.7736 16.2706 48.6995 15.9207 48.5488L15.9181 48.5514Z" fill="white"/>
<path d="M24.2399 47.5195H21.7444L21.3306 48.7123H20.0126L22.2654 42.4391H23.729L25.9819 48.7123H24.6537L24.2399 47.5195ZM23.9002 46.5131L22.9934 43.8924L22.0866 46.5131H23.9002Z" fill="white"/>
<path d="M31.1543 45.3305C30.9959 45.6242 30.7482 45.8592 30.4084 46.0406C30.0713 46.2194 29.6447 46.3088 29.1288 46.3088H28.079V48.7149H26.8223V42.4518H29.1288C29.6141 42.4518 30.0253 42.5361 30.3676 42.7022C30.7073 42.8707 30.9653 43.1006 31.1339 43.3944C31.305 43.6881 31.3893 44.0202 31.3893 44.3905C31.3893 44.7251 31.3101 45.0393 31.1517 45.333L31.1543 45.3305ZM29.8491 45.0546C30.0176 44.8963 30.0994 44.674 30.0994 44.3854C30.0994 43.775 29.7597 43.471 29.0777 43.471H28.0815V45.2922H29.0777C29.4251 45.2922 29.683 45.213 29.8491 45.0546Z" fill="white"/>
<path d="M34.4084 44.8758C34.6179 44.4901 34.909 44.1913 35.2794 43.9793C35.6498 43.7673 36.0738 43.66 36.554 43.66C37.1696 43.66 37.6804 43.8133 38.084 44.1223C38.4876 44.4314 38.7583 44.8631 38.8962 45.4199H37.5399C37.4684 45.2053 37.3484 45.0368 37.1772 44.9116C37.0061 44.789 36.7966 44.7277 36.5438 44.7277C36.1862 44.7277 35.9001 44.858 35.6906 45.1185C35.4812 45.379 35.3765 45.7468 35.3765 46.227C35.3765 46.7072 35.4812 47.0648 35.6906 47.3254C35.9001 47.5859 36.1836 47.7162 36.5438 47.7162C37.0521 47.7162 37.3841 47.4888 37.5399 47.0342H38.8962C38.7583 47.5731 38.485 47.9997 38.0789 48.3164C37.6728 48.6331 37.1645 48.7915 36.554 48.7915C36.0763 48.7915 35.6498 48.6842 35.2794 48.4722C34.909 48.2602 34.6179 47.9614 34.4084 47.5757C34.199 47.19 34.0942 46.7404 34.0942 46.2245C34.0942 45.7085 34.199 45.259 34.4084 44.8733V44.8758Z" fill="white"/>
<path d="M40.7327 48.4748C40.3496 48.2628 40.0482 47.9614 39.8311 47.5731C39.6114 47.1849 39.5042 46.7353 39.5042 46.227C39.5042 45.7187 39.6165 45.2692 39.8413 44.8809C40.0661 44.4927 40.3726 44.1913 40.7608 43.9793C41.1491 43.7673 41.5833 43.66 42.061 43.66C42.5386 43.66 42.9728 43.7673 43.3611 43.9793C43.7493 44.1913 44.0558 44.4927 44.2806 44.8809C44.5054 45.2692 44.6178 45.7187 44.6178 46.227C44.6178 46.7353 44.5028 47.1849 44.2729 47.5731C44.0431 47.9614 43.7314 48.2628 43.3406 48.4748C42.9498 48.6868 42.5105 48.7941 42.0252 48.7941C41.5399 48.7941 41.1159 48.6868 40.7327 48.4748ZM42.6689 47.5323C42.8681 47.4224 43.029 47.2564 43.1491 47.0342C43.2691 46.812 43.3279 46.5438 43.3279 46.227C43.3279 45.7545 43.2027 45.3918 42.955 45.1364C42.7072 44.8809 42.4032 44.7558 42.0456 44.7558C41.688 44.7558 41.3866 44.8835 41.144 45.1364C40.9013 45.3892 40.7813 45.7545 40.7813 46.227C40.7813 46.6996 40.8988 47.0623 41.1363 47.3177C41.3739 47.5731 41.6702 47.6983 42.0278 47.6983C42.2551 47.6983 42.4696 47.6421 42.6689 47.5323Z" fill="white"/>
<path d="M53.1925 44.2296C53.5654 44.6025 53.7544 45.1262 53.7544 45.7954V48.7123H52.4977V45.9665C52.4977 45.5783 52.3981 45.2794 52.2014 45.0725C52.0047 44.8656 51.734 44.7634 51.3943 44.7634C51.0546 44.7634 50.7838 44.8656 50.582 45.0725C50.3802 45.2794 50.2806 45.5757 50.2806 45.9665V48.7123H49.0239V45.9665C49.0239 45.5783 48.9243 45.2794 48.7276 45.0725C48.531 44.8656 48.2602 44.7634 47.9205 44.7634C47.5808 44.7634 47.2998 44.8656 47.1006 45.0725C46.8988 45.2794 46.7992 45.5757 46.7992 45.9665V48.7123H45.5425V43.7417H46.7992V44.342C46.9601 44.1325 47.1695 43.9691 47.4224 43.849C47.6778 43.729 47.9563 43.6702 48.2602 43.6702C48.6485 43.6702 48.9958 43.752 49.2998 43.918C49.6037 44.084 49.8413 44.3165 50.0099 44.623C50.1708 44.3369 50.4058 44.1045 50.7149 43.9308C51.0239 43.7571 51.356 43.6702 51.7161 43.6702C52.3266 43.6702 52.8196 43.8567 53.1925 44.2322V44.2296Z" fill="white"/>
<path d="M56.8731 43.8899C57.1566 43.7366 57.481 43.66 57.8462 43.66C58.2702 43.66 58.6559 43.7647 58.9982 43.9742C59.3405 44.1836 59.6138 44.4799 59.8156 44.8656C60.0148 45.2513 60.117 45.6983 60.117 46.2066C60.117 46.7149 60.0173 47.1644 59.8156 47.5578C59.6138 47.9486 59.343 48.2526 58.9982 48.4697C58.6534 48.6868 58.2702 48.7915 57.8462 48.7915C57.481 48.7915 57.1591 48.7174 56.8807 48.5667C56.6023 48.4186 56.3775 48.2296 56.2038 48.0022V51.0801H54.9471V43.7392H56.2038V44.4569C56.3648 44.2296 56.587 44.0406 56.8731 43.8873V43.8899ZM58.6483 45.4327C58.5257 45.213 58.3647 45.0495 58.163 44.9346C57.9637 44.8222 57.7466 44.7634 57.5116 44.7634C57.2766 44.7634 57.0697 44.8222 56.8705 44.9371C56.6687 45.0546 56.5078 45.2232 56.3852 45.4454C56.2626 45.6677 56.2013 45.9282 56.2013 46.227C56.2013 46.5259 56.2626 46.7864 56.3852 47.0086C56.5078 47.2309 56.6687 47.3994 56.8705 47.5169C57.0697 47.6344 57.2843 47.6906 57.5116 47.6906C57.7389 47.6906 57.9612 47.6319 58.163 47.5118C58.3647 47.3918 58.5257 47.2206 58.6483 47.001C58.7709 46.7788 58.8322 46.5157 58.8322 46.2117C58.8322 45.9078 58.7709 45.6549 58.6483 45.4352V45.4327Z" fill="white"/>
<path d="M61.0084 44.8707C61.2077 44.4825 61.481 44.1836 61.8258 43.9742C62.1706 43.7647 62.5537 43.66 62.9778 43.66C63.3481 43.66 63.6725 43.7341 63.9509 43.8848C64.2293 44.0355 64.4516 44.2219 64.6201 44.4493V43.7392H65.8845V48.7098H64.6201V47.9818C64.4592 48.2142 64.237 48.4084 63.9509 48.5616C63.6674 48.7149 63.3405 48.7915 62.9675 48.7915C62.5486 48.7915 62.1681 48.6842 61.8232 48.4697C61.4784 48.2551 61.2077 47.9512 61.0059 47.5578C60.8041 47.167 60.7045 46.7149 60.7045 46.2066C60.7045 45.6983 60.8041 45.259 61.0059 44.8682L61.0084 44.8707ZM64.4413 45.4429C64.3213 45.2232 64.1604 45.0572 63.956 44.9397C63.7517 44.8222 63.5346 44.766 63.2996 44.766C63.0646 44.766 62.85 44.8222 62.6534 44.9371C62.4567 45.0521 62.2958 45.2181 62.1732 45.4352C62.0506 45.6549 61.9893 45.9129 61.9893 46.2117C61.9893 46.5106 62.0506 46.7736 62.1732 46.9959C62.2958 47.2206 62.4567 47.3918 62.6585 47.5118C62.8577 47.6319 63.0723 47.6906 63.2996 47.6906C63.5269 47.6906 63.7517 47.6319 63.956 47.5169C64.1604 47.3994 64.3213 47.2334 64.4413 47.0137C64.5614 46.7941 64.6201 46.5335 64.6201 46.2296C64.6201 45.9256 64.5614 45.6625 64.4413 45.4454V45.4429Z" fill="white"/>
<path d="M71.3071 44.2296C71.6724 44.6025 71.8537 45.1261 71.8537 45.7954V48.7123H70.5971V45.9665C70.5971 45.5706 70.4974 45.2692 70.3008 45.0546C70.1041 44.8426 69.8333 44.7353 69.4936 44.7353C69.1539 44.7353 68.8729 44.8426 68.6737 45.0546C68.4719 45.2666 68.3723 45.5706 68.3723 45.9665V48.7123H67.1156V43.7417H68.3723V44.3599C68.5409 44.1453 68.7529 43.9767 69.0134 43.8516C69.2739 43.729 69.56 43.6677 69.8716 43.6677C70.4642 43.6677 70.9419 43.8541 71.3071 44.2296Z" fill="white"/>
<path d="M77.8027 43.7417L74.7248 51.0647H73.3863L74.4642 48.5871L72.4719 43.7417H73.8819L75.1641 47.2155L76.4642 43.7417H77.8001H77.8027Z" fill="white"/>
</g>
</g>
<defs>
<clipPath id="clip0_301_395">
<rect width="153" height="51.3493" fill="white"/>
</clipPath>
<clipPath id="clip1_301_395">
<rect width="153" height="51.0826" fill="white"/>
</clipPath>
</defs>
</svg>
